<svg width="736" height="460" viewBox="0 0 736 460" fill="none" xmlns="http://www.w3.org/2000/svg">
<rect width="736" height="460" rx="8" fill="#F2F4F7"/>
<path fill-rule="evenodd" clip-rule="evenodd" d="M280 158C280 149.163 287.163 142 296 142H440C448.836 142 456 149.163 456 158V302C456 310.836 448.836 318 440 318H296C287.163 318 280 310.836 280 302V158ZM387.555 200.667C398.355 200.667 407.111 191.911 407.111 181.111C407.111 170.311 398.355 161.556 387.555 161.556C376.755 161.556 368 170.311 368 181.111C368 191.911 376.755 200.667 387.555 200.667ZM414.025 232.864C410.206 229.045 404.015 229.045 400.197 232.864L393.212 239.848C390.088 242.972 385.023 242.972 381.898 239.848L355.358 213.308C351.54 209.49 345.349 209.49 341.53 213.308L302.419 252.419C300.585 254.253 299.555 256.74 299.555 259.333V288.666C299.555 294.066 303.933 298.444 309.333 298.444H426.666C432.066 298.444 436.444 294.066 436.444 288.666V259.333C436.444 256.74 435.414 254.253 433.58 252.419L414.025 232.864Z" fill="#CBD0D9"/>
</svg>
